<?xml version="1.0" encoding="UTF-8" standalone="no"?>
<!-- Generator: Adobe Illustrator 16.0.0, SVG Export Plug-In . SVG Version: 6.00 Build 0)  -->

<svg
   xmlns:dc="http://purl.org/dc/elements/1.1/"
   xmlns:cc="http://creativecommons.org/ns#"
   xmlns:rdf="http://www.w3.org/1999/02/22-rdf-syntax-ns#"
   xmlns:svg="http://www.w3.org/2000/svg"
   xmlns="http://www.w3.org/2000/svg"
   xmlns:sodipodi="http://sodipodi.sourceforge.net/DTD/sodipodi-0.dtd"
   xmlns:inkscape="http://www.inkscape.org/namespaces/inkscape"
   version="1.1"
   id="Layer_1"
   x="0px"
   y="0px"
   width="64px"
   height="64px"
   viewBox="0 0 64 64"
   enable-background="new 0 0 64 64"
   xml:space="preserve"
   inkscape:version="0.48.5 r10040"
   sodipodi:docname="book_2 - w.svg"><metadata
   id="metadata13"><rdf:RDF><cc:Work
       rdf:about=""><dc:format>image/svg+xml</dc:format><dc:type
         rdf:resource="http://purl.org/dc/dcmitype/StillImage" /></cc:Work></rdf:RDF></metadata><defs
   id="defs11" /><sodipodi:namedview
   pagecolor="#ffffff"
   bordercolor="#666666"
   borderopacity="1"
   objecttolerance="10"
   gridtolerance="10"
   guidetolerance="10"
   inkscape:pageopacity="0"
   inkscape:pageshadow="2"
   inkscape:window-width="1280"
   inkscape:window-height="738"
   id="namedview9"
   showgrid="false"
   inkscape:zoom="3.6875"
   inkscape:cx="32"
   inkscape:cy="32"
   inkscape:window-x="-8"
   inkscape:window-y="-8"
   inkscape:window-maximized="1"
   inkscape:current-layer="Layer_1" />
<g
   id="BOOK_2_1_"
   enable-background="new    "
   style="fill:#f9f9f9">
	<g
   id="BOOK_2"
   style="fill:#f9f9f9">
		<g
   id="g5"
   style="fill:#f9f9f9">
			<path
   d="M10.759,32.73L10.759,32.73l11,5l0,0C22.137,37.902,22.557,38,23,38c1.657,0,3-1.343,3-3     c0-1.214-0.721-2.259-1.759-2.731l0,0l-11-5l0,0C12.863,27.097,12.443,27,12,27c-1.657,0-3,1.343-3,3     C9,31.214,9.721,32.259,10.759,32.73z M10.759,43.73L10.759,43.73l11,5l0,0C22.137,48.902,22.557,49,23,49c1.657,0,3-1.343,3-3     c0-1.214-0.721-2.259-1.759-2.73l0,0l-11-5l0,0C12.863,38.098,12.443,38,12,38c-1.657,0-3,1.343-3,3     C9,42.214,9.721,43.259,10.759,43.73z M10.759,21.731L10.759,21.731l11,5l0,0C22.137,26.903,22.557,27,23,27c1.657,0,3-1.343,3-3     c0-1.214-0.721-2.259-1.759-2.731l0,0l-11-5l0,0C12.863,16.097,12.443,16,12,16c-1.657,0-3,1.343-3,3     C9,20.214,9.721,21.259,10.759,21.731z M41,49c0.443,0,0.863-0.098,1.241-0.27l0,0l11-5l0,0C54.279,43.259,55,42.214,55,41     c0-1.657-1.343-3-3-3c-0.443,0-0.863,0.098-1.241,0.27l0,0l-11,5l0,0C38.721,43.741,38,44.786,38,46C38,47.657,39.343,49,41,49z      M61,0c-0.406,0-0.794,0.082-1.146,0.228l0,0L59.848,0.23c-0.009,0.004-0.018,0.007-0.027,0.011L32,11.753L4.179,0.241     C4.17,0.237,4.161,0.234,4.152,0.23L4.147,0.228l0,0C3.794,0.082,3.406,0,3,0C1.343,0,0,1.343,0,3v46     c0,1.257,0.774,2.333,1.871,2.779l28.942,11.977C31.177,63.913,31.578,64,32,64s0.823-0.087,1.188-0.245l28.941-11.976     C63.227,51.333,64,50.257,64,49V3C64,1.343,62.657,0,61,0z M29,56.512L6,46.995V7.488l23,9.517V56.512z M58,46.995l-23,9.517     V17.005l23-9.517V46.995z M41,38c0.443,0,0.863-0.098,1.241-0.27l0,0l11-5C54.279,32.259,55,31.214,55,30c0-1.657-1.343-3-3-3     c-0.443,0-0.863,0.097-1.241,0.269l0,0l-11,5l0,0C38.721,32.741,38,33.786,38,35C38,36.657,39.343,38,41,38z M41,27     c0.443,0,0.863-0.097,1.241-0.269l0,0l11-5l0,0C54.279,21.259,55,20.214,55,19c0-1.657-1.343-3-3-3     c-0.443,0-0.863,0.097-1.241,0.269l0,0l-11,5C38.721,21.741,38,22.786,38,24C38,25.657,39.343,27,41,27z"
   id="path7"
   style="fill:#f9f9f9" />
		</g>
	</g>
</g>
</svg>